# xmcd CD database file
#
# Track frame offsets:
#	150
#	17610
#	34168
#	48755
#	64075
#	82453
#	102995
#	124819
#	138496
#	155227
#
# Disc length: 2318 seconds
#
# Revision: 0
# Processed by: cddbd v1.5.2PL0 Copyright (c) Steve Scherf et al.
# Submitted via: CDex 1.70beta2
#
DISCID=8b090c0a
DTITLE=Various Artist - Spring Break 3
DYEAR=2007
DGENRE=Country
TTITLE0=Grupo Mamey - Obsession
TTITLE1=KT Feat A Zellinger - Sway
TTITLE2=Soulmates - It's Not Unusual
TTITLE3=Pachanga - Loco
TTITLE4=SDR Saltsa and Michael - Sobrevivire
TTITLE5=Micky Sanderson - On The Radio
TTITLE6=Netz - You Can Do Music
TTITLE7=Rockefeler - Do It 2 Night
TTITLE8=Philly Grooves Feat Sophia - Voulez Vous
TTITLE9=Velvet 99 - These Boots Are Made For Walkin'
EXTD=YEAR: 2007
EXTT0=
EXTT1=
EXTT2=
EXTT3=
EXTT4=
EXTT5=
EXTT6=
EXTT7=
EXTT8=
EXTT9=
PLAYORDER=
